<?xml version="1.0" encoding="utf-8"?><svg xmlns="http://www.w3.org/2000/svg" xmlns:xlink="http://www.w3.org/1999/xlink"><symbol viewBox="0 0 955 284" id="how-background-light" xmlns="http://www.w3.org/2000/svg"><path d="M75 1l124 58-124 58-124-58L75 1z"/><path d="M194.618 62.985l5.47-2.559.212.453.7-.327.7.327.212-.453 5.47 2.56-.211.452 1.823.853.212-.453 5.47 2.56-.211.452 1.823.853.212-.453 5.471 2.559-.212.453 1.823.853.212-.453 5.471 2.559-.212.453 1.823.852.212-.453 5.471 2.56-.212.452 1.824.853.211-.453 5.471 2.56-.212.452 1.824.853.211-.453 5.471 2.559-.212.453 1.824.853.212-.453 5.47 2.559-.212.453 1.824.853.212-.453 5.47 2.558-.212.453 1.824.853.212-.453 5.47 2.56-.211.452 1.823.853.212-.453 5.471 2.559-.212.453 1.823.853.212-.453 5.471 2.559-.212.453 1.823.853.212-.453 5.471 2.558-.212.453 1.823.853.212-.453 5.471 2.559-.212.453 1.824.853.211-.453 5.471 2.559-.212.453 1.824.853.212-.453 5.47 2.559-.212.453 1.824.853.212-.453 5.47 2.559-.18.385-.032.015.013.026-.013.026.032.015.18.385-5.47 2.559-.212-.453-1.824.853.212.453-5.47 2.559-.212-.453-1.824.853.212.453-5.471 2.559-.211-.453-1.824.853.212.453-5.471 2.559-.212-.453-1.823.853.212.453-5.471 2.558-.212-.453-1.823.853.212.453-5.471 2.559-.212-.453-1.823.853.212.453-5.471 2.559-.212-.453-1.823.853.211.453-5.47 2.559-.212-.453-1.824.853.212.453-5.47 2.558-.212-.453-1.824.853.212.453-5.47 2.559-.212-.453-1.824.853.212.453-5.471 2.559-.211-.453-1.824.853.212.453-5.471 2.559-.211-.453-1.824.853.212.453-5.471 2.558-.212-.452-1.823.852.212.453-5.471 2.559-.212-.453-1.823.853.212.453-5.471 2.559-.212-.453-1.823.853.211.453-5.47 2.559-.212-.453-1.823.853.211.453-5.47 2.559-.212-.453-.7.327-.7-.327-.212.453-5.47-2.559.211-.453-1.823-.853-.212.453-5.47-2.559.211-.453-1.823-.853-.212.453-5.471-2.559.212-.453-1.823-.853-.212.453-5.471-2.559.212-.453-1.823-.852-.212.452-5.471-2.558.212-.453-1.824-.853-.211.453-5.471-2.559.212-.453-1.824-.853-.211.453-5.471-2.559.212-.453-1.824-.853-.212.453-5.47-2.559.212-.453-1.824-.853-.212.453-5.47-2.558.212-.453-1.824-.853-.212.453-5.47-2.559.211-.453-1.823-.853-.212.453-5.471-2.559.212-.453-1.823-.853-.212.453-5.471-2.559.212-.453-1.823-.853-.212.453-5.471-2.558.212-.453-1.823-.853-.212.453-5.47-2.559.211-.453-1.824-.853-.211.453-5.471-2.559.212-.453-1.824-.853-.212.453-5.47-2.559.212-.453-1.824-.853-.212.453-5.47-2.559.18-.385.032-.015-.013-.026.013-.026-.032-.015-.18-.385 5.47-2.559.212.453 1.824-.853-.212-.453 5.47-2.559.212.453 1.824-.853-.212-.453 5.47-2.559.212.453 1.824-.853-.212-.453 5.471-2.559.212.453 1.823-.853-.212-.453 5.471-2.558.212.453 1.823-.853-.212-.453 5.471-2.56.212.454 1.823-.853-.212-.453 5.471-2.559.212.453 1.823-.853-.211-.453 5.47-2.559.212.453 1.824-.853-.212-.453 5.47-2.558.212.453 1.824-.853-.212-.453 5.47-2.56.212.454 1.824-.853-.212-.453 5.471-2.559.211.453 1.824-.853-.212-.453 5.471-2.559.211.453 1.824-.853-.212-.453 5.471-2.559.212.453 1.823-.852-.212-.453 5.471-2.56.212.454 1.823-.853-.212-.453 5.471-2.559.212.453 1.823-.853-.211-.453 5.47-2.559.212.453 1.823-.853-.211-.453z" stroke-dasharray="2 6"/><path d="M327 119l124 58-124 58-124-58 124-58z"/><path d="M446.618 180.985l5.47-2.559.212.453.7-.327.7.327.212-.453 5.47 2.559-.211.453 1.823.853.212-.453 5.47 2.559-.211.453 1.823.853.212-.453 5.471 2.559-.212.453 1.823.853.212-.453 5.471 2.559-.212.452 1.823.853.212-.452 5.471 2.558-.212.453 1.824.853.211-.453 5.471 2.559-.212.453 1.824.853.211-.453 5.471 2.559-.212.453 1.824.853.212-.453 5.47 2.559-.212.453 1.824.852.212-.452 5.47 2.558-.212.453 1.824.853.212-.453 5.47 2.559-.211.453 1.823.853.212-.453 5.471 2.559-.212.453 1.823.853.212-.453 5.471 2.559-.212.453 1.823.853.212-.453 5.471 2.558-.212.453 1.823.853.212-.453 5.471 2.559-.212.453 1.824.853.211-.453 5.471 2.559-.212.453 1.824.853.212-.453 5.47 2.559-.212.453 1.824.853.212-.453 5.47 2.559-.18.385-.032.015.013.026-.013.026.032.015.18.385-5.47 2.559-.212-.453-1.824.853.212.453-5.47 2.559-.212-.453-1.824.853.212.453-5.471 2.559-.211-.453-1.824.853.212.453-5.471 2.559-.212-.453-1.823.853.212.453-5.471 2.558-.212-.453-1.823.853.212.453-5.471 2.559-.212-.453-1.823.853.212.453-5.471 2.559-.212-.453-1.823.853.211.453-5.47 2.559-.212-.453-1.824.853.212.453-5.47 2.558-.212-.453-1.824.853.212.453-5.47 2.559-.212-.453-1.824.853.212.453-5.471 2.559-.211-.453-1.824.853.212.453-5.471 2.559-.211-.453-1.824.853.212.453-5.471 2.558-.212-.452-1.823.852.212.453-5.471 2.559-.212-.453-1.823.853.212.453-5.471 2.559-.212-.453-1.823.853.211.453-5.47 2.559-.212-.453-1.823.853.211.453-5.47 2.559-.212-.453-.7.327-.7-.327-.212.453-5.47-2.559.211-.453-1.823-.853-.212.453-5.47-2.559.211-.453-1.823-.853-.212.453-5.471-2.559.212-.453-1.823-.853-.212.453-5.471-2.559.212-.453-1.823-.852-.212.452-5.471-2.558.212-.453-1.824-.853-.211.453-5.471-2.559.212-.453-1.824-.853-.211.453-5.471-2.559.212-.453-1.824-.853-.212.453-5.47-2.559.212-.453-1.824-.853-.212.453-5.47-2.558.212-.453-1.824-.853-.212.453-5.47-2.559.211-.453-1.823-.853-.212.453-5.471-2.559.212-.453-1.823-.853-.212.453-5.471-2.559.212-.453-1.823-.853-.212.453-5.471-2.558.212-.453-1.823-.853-.212.453-5.471-2.559.212-.453-1.824-.853-.211.453-5.471-2.559.212-.453-1.824-.853-.212.453-5.47-2.559.212-.453-1.824-.853-.212.453-5.47-2.559.18-.385.032-.015-.013-.026.013-.026-.032-.015-.18-.385 5.47-2.559.212.453 1.824-.853-.212-.453 5.47-2.559.212.453 1.824-.853-.212-.453 5.471-2.559.211.453 1.824-.853-.212-.453 5.471-2.559.212.453 1.823-.853-.212-.453 5.471-2.558.212.453 1.823-.853-.212-.453 5.471-2.559.212.453 1.823-.853-.212-.453 5.471-2.559.212.453 1.823-.853-.211-.453 5.47-2.559.212.453 1.824-.853-.212-.453 5.47-2.558.212.452 1.824-.852-.212-.453 5.47-2.559.212.453 1.824-.853-.212-.453 5.471-2.559.211.453 1.824-.853-.212-.453 5.471-2.559.211.453 1.824-.853-.212-.453 5.471-2.558.212.452 1.823-.853-.212-.452 5.471-2.559.212.453 1.823-.853-.212-.453 5.471-2.559.212.453 1.823-.853-.211-.453 5.47-2.559.212.453 1.823-.853-.211-.453z" stroke-dasharray="2 6"/><path d="M579 237l124 58-124 58-124-58 124-58zM74 119l124 58-124 58-124-58 124-58z"/><path d="M193.618 180.985l5.47-2.559.212.453.7-.327.7.327.212-.453 5.47 2.559-.211.453 1.823.853.212-.453 5.47 2.559-.211.453 1.823.853.212-.453 5.471 2.559-.212.453 1.823.853.212-.453 5.471 2.559-.212.452 1.823.853.212-.452 5.471 2.558-.212.453 1.824.853.211-.453 5.471 2.559-.212.453 1.824.853.211-.453 5.471 2.559-.212.453 1.824.853.212-.453 5.47 2.559-.212.453 1.824.852.212-.452 5.47 2.558-.212.453 1.824.853.212-.453 5.47 2.559-.211.453 1.823.853.212-.453 5.471 2.559-.212.453 1.823.853.212-.453 5.471 2.559-.212.453 1.823.853.212-.453 5.471 2.558-.212.453 1.823.853.212-.453 5.471 2.559-.212.453 1.824.853.211-.453 5.471 2.559-.212.453 1.824.853.212-.453 5.47 2.559-.212.453 1.824.853.212-.453 5.47 2.559-.18.385-.032.015.013.026-.013.026.032.015.18.385-5.47 2.559-.212-.453-1.824.853.212.453-5.47 2.559-.212-.453-1.824.853.212.453-5.471 2.559-.211-.453-1.824.853.212.453-5.471 2.559-.212-.453-1.823.853.212.453-5.471 2.558-.212-.453-1.823.853.212.453-5.471 2.559-.212-.453-1.823.853.212.453-5.471 2.559-.212-.453-1.823.853.211.453-5.47 2.559-.212-.453-1.824.853.212.453-5.47 2.558-.212-.453-1.824.853.212.453-5.47 2.559-.212-.453-1.824.853.212.453-5.471 2.559-.211-.453-1.824.853.212.453-5.471 2.559-.211-.453-1.824.853.212.453-5.471 2.558-.212-.452-1.823.852.212.453-5.471 2.559-.212-.453-1.823.853.212.453-5.471 2.559-.212-.453-1.823.853.211.453-5.47 2.559-.212-.453-1.823.853.211.453-5.47 2.559-.212-.453-.7.327-.7-.327-.212.453-5.47-2.559.211-.453-1.823-.853-.212.453-5.47-2.559.211-.453-1.823-.853-.212.453-5.471-2.559.212-.453-1.823-.853-.212.453-5.471-2.559.212-.453-1.823-.852-.212.452-5.471-2.558.212-.453-1.824-.853-.211.453-5.471-2.559.212-.453-1.824-.853-.211.453-5.471-2.559.212-.453-1.824-.853-.212.453-5.47-2.559.212-.453-1.824-.853-.212.453-5.47-2.558.212-.453-1.824-.853-.212.453-5.47-2.559.211-.453-1.823-.853-.212.453-5.471-2.559.212-.453-1.823-.853-.212.453-5.471-2.559.212-.453-1.823-.853-.212.453-5.471-2.558.212-.453-1.823-.853-.212.453-5.47-2.559.211-.453-1.824-.853-.211.453-5.471-2.559.212-.453-1.824-.853-.212.453-5.47-2.559.212-.453-1.824-.853-.212.453-5.47-2.559.18-.385.032-.015-.013-.026.013-.026-.032-.015-.18-.385 5.47-2.559.212.453 1.824-.853-.212-.453 5.47-2.559.212.453 1.824-.853-.212-.453 5.47-2.559.212.453 1.824-.853-.212-.453 5.471-2.559.212.453 1.823-.853-.212-.453 5.471-2.558.212.453 1.823-.853-.212-.453 5.471-2.559.212.453 1.823-.853-.212-.453 5.471-2.559.212.453 1.823-.853-.211-.453 5.47-2.559.212.453 1.824-.853-.212-.453 5.47-2.558.212.452 1.824-.852-.212-.453 5.47-2.559.212.453 1.824-.853-.212-.453 5.471-2.559.211.453 1.824-.853-.212-.453 5.471-2.559.211.453 1.824-.853-.212-.453 5.471-2.558.212.452 1.823-.853-.212-.452 5.471-2.559.212.453 1.823-.853-.212-.453 5.471-2.559.212.453 1.823-.853-.211-.453 5.47-2.559.212.453 1.823-.853-.211-.453z" stroke-dasharray="2 6"/><path d="M326 237l124 58-124 58-124-58 124-58zM327 0l124 58-124 58-124-58L327 0z"/><path d="M446.618 61.985l5.47-2.559.212.453.7-.327.7.327.212-.453 5.47 2.56-.211.452 1.823.853.212-.453 5.47 2.56-.211.452 1.823.853.212-.453 5.471 2.559-.212.453 1.823.853.212-.453 5.471 2.559-.212.453 1.823.852.212-.453 5.471 2.56-.212.452 1.824.853.211-.453 5.471 2.56-.212.452 1.824.853.211-.453 5.471 2.559-.212.453 1.824.853.212-.453 5.47 2.559-.212.453 1.824.853.212-.453 5.47 2.558-.212.453 1.824.853.212-.453 5.47 2.56-.211.452 1.823.853.212-.453 5.471 2.559-.212.453 1.823.853.212-.453 5.471 2.559-.212.453 1.823.853.212-.453 5.471 2.558-.212.453 1.823.853.212-.453 5.471 2.559-.212.453 1.824.853.211-.453 5.471 2.559-.212.453 1.824.853.212-.453 5.47 2.559-.212.453 1.824.853.212-.453 5.47 2.559-.18.385-.032.015.013.026-.013.026.032.015.18.385-5.47 2.559-.212-.453-1.824.853.212.453-5.47 2.559-.212-.453-1.824.853.212.453-5.471 2.559-.211-.453-1.824.853.212.453-5.471 2.559-.212-.453-1.823.853.212.453-5.471 2.558-.212-.453-1.823.853.212.453-5.471 2.559-.212-.453-1.823.853.212.453-5.471 2.559-.212-.453-1.823.853.211.453-5.47 2.559-.212-.453-1.824.853.212.453-5.47 2.558-.212-.453-1.824.853.212.453-5.47 2.559-.212-.453-1.824.853.212.453-5.471 2.559-.211-.453-1.824.853.212.453-5.471 2.559-.211-.453-1.824.853.212.453-5.471 2.558-.212-.452-1.823.852.212.453-5.471 2.559-.212-.453-1.823.853.212.453-5.471 2.559-.212-.453-1.823.853.211.453-5.47 2.559-.212-.453-1.823.853.211.453-5.47 2.559-.212-.453-.7.327-.7-.327-.212.453-5.47-2.559.211-.453-1.823-.853-.212.453-5.47-2.559.211-.453-1.823-.853-.212.453-5.471-2.559.212-.453-1.823-.853-.212.453-5.471-2.559.212-.453-1.823-.852-.212.452-5.471-2.558.212-.453-1.824-.853-.211.453-5.471-2.559.212-.453-1.824-.853-.211.453-5.471-2.559.212-.453-1.824-.853-.212.453-5.47-2.559.212-.453-1.824-.853-.212.453-5.47-2.558.212-.453-1.824-.853-.212.453-5.47-2.559.211-.453-1.823-.853-.212.453-5.471-2.559.212-.453-1.823-.853-.212.453-5.471-2.559.212-.453-1.823-.853-.212.453-5.471-2.558.212-.453-1.823-.853-.212.453-5.471-2.559.212-.453-1.824-.853-.211.453-5.471-2.559.212-.453-1.824-.853-.212.453-5.47-2.559.212-.453-1.824-.853-.212.453-5.47-2.559.18-.385.032-.015-.013-.026.013-.026-.032-.015-.18-.385 5.47-2.559.212.453 1.824-.853-.212-.453 5.47-2.559.212.453 1.824-.853-.212-.453 5.471-2.559.211.453 1.824-.853-.212-.453 5.471-2.559.212.453 1.823-.853-.212-.453 5.471-2.558.212.453 1.823-.853-.212-.453 5.471-2.56.212.454 1.823-.853-.212-.453 5.471-2.559.212.453 1.823-.853-.211-.453 5.47-2.559.212.453 1.824-.853-.212-.453 5.47-2.558.212.453 1.824-.853-.212-.453 5.47-2.56.212.454 1.824-.853-.212-.453 5.471-2.559.211.453 1.824-.853-.212-.453 5.471-2.559.211.453 1.824-.853-.212-.453 5.471-2.559.212.453 1.823-.852-.212-.453 5.471-2.56.212.454 1.823-.853-.212-.453 5.471-2.559.212.453 1.823-.853-.211-.453 5.47-2.559.212.453 1.823-.853-.211-.453z" stroke-dasharray="2 6"/><path d="M579 118l124 58-124 58-124-58 124-58z"/><path d="M698.618 179.985l5.47-2.559.212.453.7-.327.7.327.212-.453 5.47 2.559-.211.453 1.823.853.212-.453 5.47 2.559-.211.453 1.823.853.212-.453 5.471 2.559-.212.453 1.823.853.212-.453 5.471 2.559-.212.452 1.823.853.212-.452 5.471 2.558-.212.453 1.824.853.211-.453 5.471 2.559-.212.453 1.824.853.211-.453 5.471 2.559-.212.453 1.824.853.212-.453 5.47 2.559-.212.453 1.824.852.212-.452 5.47 2.558-.212.453 1.824.853.212-.453 5.47 2.559-.211.453 1.823.853.212-.453 5.471 2.559-.212.453 1.823.853.212-.453 5.471 2.559-.212.453 1.823.853.212-.453 5.471 2.558-.212.453 1.823.853.212-.453 5.471 2.559-.212.453 1.824.853.211-.453 5.471 2.559-.212.453 1.824.853.212-.453 5.47 2.559-.212.453 1.824.853.212-.453 5.47 2.559-.18.385-.032.015.013.026-.013.026.032.015.18.385-5.47 2.559-.212-.453-1.824.853.212.453-5.47 2.559-.212-.453-1.824.853.212.453-5.471 2.559-.211-.453-1.824.853.212.453-5.471 2.559-.212-.453-1.823.853.212.453-5.471 2.558-.212-.453-1.823.853.212.453-5.471 2.559-.212-.453-1.823.853.212.453-5.471 2.559-.212-.453-1.823.853.211.453-5.47 2.559-.212-.453-1.824.853.212.453-5.47 2.558-.212-.453-1.824.853.212.453-5.47 2.559-.212-.453-1.824.853.212.453-5.471 2.559-.211-.453-1.824.853.212.453-5.471 2.559-.211-.453-1.824.853.212.453-5.471 2.558-.212-.452-1.823.852.212.453-5.471 2.559-.212-.453-1.823.853.212.453-5.471 2.559-.212-.453-1.823.853.211.453-5.47 2.559-.212-.453-1.823.853.211.453-5.47 2.559-.212-.453-.7.327-.7-.327-.212.453-5.47-2.559.211-.453-1.823-.853-.212.453-5.47-2.559.211-.453-1.823-.853-.212.453-5.471-2.559.212-.453-1.823-.853-.212.453-5.471-2.559.212-.453-1.823-.852-.212.452-5.471-2.558.212-.453-1.824-.853-.211.453-5.471-2.559.212-.453-1.824-.853-.211.453-5.471-2.559.212-.453-1.824-.853-.212.453-5.47-2.559.212-.453-1.824-.853-.212.453-5.47-2.558.212-.453-1.824-.853-.212.453-5.47-2.559.211-.453-1.823-.853-.212.453-5.471-2.559.212-.453-1.823-.853-.212.453-5.471-2.559.212-.453-1.823-.853-.212.453-5.471-2.558.212-.453-1.823-.853-.212.453-5.471-2.559.212-.453-1.824-.853-.211.453-5.471-2.559.212-.453-1.824-.853-.212.453-5.47-2.559.212-.453-1.824-.853-.212.453-5.47-2.559.18-.385.032-.015-.013-.026.013-.026-.032-.015-.18-.385 5.47-2.559.212.453 1.824-.853-.212-.453 5.47-2.559.212.453 1.824-.853-.212-.453 5.471-2.559.211.453 1.824-.853-.212-.453 5.471-2.559.212.453 1.823-.853-.212-.453 5.471-2.558.212.453 1.823-.853-.212-.453 5.471-2.559.212.453 1.823-.853-.212-.453 5.471-2.559.212.453 1.823-.853-.211-.453 5.47-2.559.212.453 1.824-.853-.212-.453 5.47-2.558.212.452 1.824-.852-.212-.453 5.47-2.559.212.453 1.824-.853-.212-.453 5.471-2.559.211.453 1.824-.853-.212-.453 5.471-2.559.211.453 1.824-.853-.212-.453 5.471-2.558.212.452 1.823-.853-.212-.452 5.471-2.559.212.453 1.823-.853-.212-.453 5.471-2.559.212.453 1.823-.853-.211-.453 5.47-2.559.212.453 1.823-.853-.211-.453z" stroke-dasharray="2 6"/><path d="M831 236l124 58-124 58-124-58 124-58z"/><path d="M205.36 137L327 80.104 448.64 137 327 193.896 205.36 137z" stroke-width="2"/></symbol></svg>